<?xml version="1.0" encoding="UTF-8"?>
<svg version="1.1" xmlns="http://www.w3.org/2000/svg" width="1872" height="2212">
<path d="M0 0 C0.79481718 -0.0069029 1.58963436 -0.01380581 2.40853691 -0.02091789 C6.63751226 -0.05659126 10.86635803 -0.08019151 15.09545898 -0.09399414 C18.50946082 -0.10707 21.92211633 -0.14136345 25.33569336 -0.1965332 C77.65755106 -1.02360524 125.21058218 13.930578 172.21484375 36.44140625 C173.07239258 36.8482666 173.92994141 37.25512695 174.81347656 37.67431641 C189.07617231 44.47177363 202.67928889 52.30455147 216.21484375 60.44140625 C216.99939941 60.9111084 217.78395508 61.38081055 218.59228516 61.86474609 C227.18126376 67.03048317 235.34653542 72.59731677 243.375 78.59375 C247.39675347 81.59374389 251.48546917 84.49338383 255.58984375 87.37890625 C256.30092285 87.8790625 257.01200195 88.37921875 257.74462891 88.89453125 C259.18643984 89.90806539 260.62849747 90.92124869 262.07080078 91.93408203 C264.86476608 93.89832044 267.65329258 95.87019951 270.44189453 97.84204102 C278.20227029 103.32845043 285.98405798 108.78380039 293.77270508 114.22998047 C299.09617015 117.95389471 304.41001539 121.69099848 309.71484375 125.44140625 C318.3456664 131.54224214 327.00473483 137.60239176 335.66650391 143.65917969 C339.85027435 146.58517358 344.03248899 149.51338935 348.21484375 152.44140625 C349.88150277 153.60808384 351.54816944 154.7747505 353.21484375 155.94140625 C363.21484376 162.94140626 363.21484376 162.94140626 365.71411133 164.69091797 C367.38318882 165.85925592 369.05229697 167.02755009 370.72143555 168.19580078 C374.85146713 171.08654114 378.98098821 173.97800479 383.109375 176.87109375 C395.79125304 185.75661467 408.49958809 194.60373271 421.21484375 203.44140625 C433.04111158 211.66119334 444.86254891 219.88741377 456.65698242 228.15283203 C463.00008667 232.59608449 469.35563262 237.02124368 475.71484375 241.44140625 C485.4117425 248.18208138 495.09193578 254.94622029 504.76318359 261.72363281 C508.0777102 264.04597988 511.39331267 266.36678823 514.70898438 268.6875 C517.20715334 270.43602357 519.70513941 272.18480822 522.203125 273.93359375 C525.57487906 276.29388749 528.94734785 278.65315535 532.3203125 281.01171875 C540.82161448 286.95741461 549.31443346 292.91445253 557.78417969 298.9050293 C561.54380188 301.56231481 565.31018779 304.20941961 569.0859375 306.84375 C577.94520129 313.02489122 586.75616038 319.25952783 595.49145508 325.61474609 C600.87348121 329.51376976 606.33720441 333.2775653 611.83984375 337.00390625 C618.42571125 341.46585983 624.83169275 346.09921228 631.15673828 350.92211914 C636.23157142 354.76640301 641.44050156 358.37701786 646.71484375 361.94140625 C653.38772508 366.45281054 659.89160595 371.12251549 666.3034668 375.99658203 C670.97591458 379.53943345 675.72287212 382.95510713 680.52734375 386.31640625 C687.44863845 391.16186949 694.2674038 396.13281349 701.05786133 401.15966797 C706.41703158 405.12446303 711.80387732 409.04764399 717.21484375 412.94140625 C732.96075681 424.28767541 748.51020497 435.87427556 763.91455078 447.68017578 C765.89573551 449.19707948 767.88031449 450.70931204 769.8671875 452.21875 C777.8452086 458.30334706 785.63622811 464.6016538 793.39892578 470.95751953 C794.97784096 472.2477382 796.56263002 473.53076213 798.1484375 474.8125 C809.97846095 484.39253385 821.38334666 494.44607062 832.50097656 504.84082031 C834.36785226 506.58430138 836.24028937 508.32168572 838.11328125 510.05859375 C839.43895556 511.2901994 840.76447912 512.52196735 842.08984375 513.75390625 C842.99959961 514.59779907 842.99959961 514.59779907 843.92773438 515.45874023 C849.94462086 521.06696058 855.71991084 526.79147311 861.08203125 533.03125 C862.74645861 534.91211388 864.43381451 536.74745702 866.16015625 538.5703125 C873.18807244 545.99459936 879.72507165 553.60764722 885.91503906 561.74316406 C887.18491974 563.40230945 888.47347505 565.04484475 889.76953125 566.68359375 C896.03962511 574.64459504 901.76665087 582.89810502 907.21484375 591.44140625 C907.76906006 592.31007324 907.76906006 592.31007324 908.33447266 593.19628906 C921.6172742 614.22689446 932.24606465 636.59303551 940.40234375 660.06640625 C940.86592285 661.35889282 940.86592285 661.35889282 941.33886719 662.67749023 C943.66697733 669.62037981 945.1321379 676.65145542 946.54070979 683.82830119 C946.75758941 684.92726964 946.97446903 686.0262381 947.19792075 687.15850862 C947.64997358 689.45490813 948.10055307 691.75159813 948.54970973 694.04856586 C949.17499332 697.2381297 949.80959469 700.42570933 950.44567379 703.61313429 C956.74762006 735.48216946 959.54358185 766.15387834 959.34004493 798.60897891 C959.31202806 804.74439417 959.33779937 810.87966647 959.35590571 817.01508737 C959.3804172 827.70633714 959.3727086 838.39709957 959.34152603 849.08829308 C959.30832833 860.52817723 959.29543921 871.96783238 959.3059864 883.40776253 C959.30697663 884.50204837 959.30697663 884.50204837 959.30798686 885.61844101 C959.31144048 889.34007568 959.31520369 893.06170998 959.3190692 896.78334424 C959.34618548 923.55108118 959.32973935 950.31864533 959.28867531 977.08635712 C959.24811788 1003.57463921 959.22477171 1030.06284062 959.22449303 1056.55115509 C959.22445516 1058.22165759 959.22441662 1059.89216008 959.2243774 1061.56266258 C959.22425378 1068.27720174 959.22426728 1074.9917409 959.2244467 1081.70628006 C959.22491754 1100.46876981 959.22240589 1119.23125855 959.21771526 1137.99374771 C959.21739726 1139.27473842 959.21739726 1139.27473842 959.21707283 1140.58160773 C959.21013579 1167.7461288 959.19044246 1194.91062446 959.16127491 1222.07513046 C959.16033046 1222.95473107 959.15938602 1223.83433169 959.15841295 1224.74058686 C959.14301808 1239.02072584 959.12675924 1253.30086383 959.11045955 1267.58100179 C959.04582544 1324.25242109 959.01242351 1380.9237585 959.01098633 1437.59521484 C959.01093511 1439.38820582 959.01088311 1441.18119679 959.01083032 1442.97418776 C959.01072586 1446.55601635 959.01062468 1450.13784494 959.01052636 1453.71967353 C959.01030408 1461.75206211 959.01006221 1469.7844507 959.00977342 1477.81683928 C959.00971038 1479.59614618 959.00965048 1481.37545308 959.0095937 1483.15475999 C959.00804133 1530.74368055 958.98652128 1578.33258944 958.95723075 1625.92150044 C958.95671991 1626.75282365 958.95620907 1627.58414686 958.95568275 1628.44066168 C958.95105633 1635.9614906 958.94641574 1643.48231951 958.94162121 1651.00314832 C958.93001938 1669.24469784 958.92042746 1687.48624449 958.9168036 1705.72779751 C958.91663788 1706.54767933 958.91647216 1707.36756116 958.91630142 1708.21228789 C958.91563657 1711.51587749 958.91498315 1714.8194671 958.91433429 1718.12305671 C958.90827372 1748.83128128 958.88905874 1779.53944513 958.84446803 1810.24763992 C958.84023303 1813.19945028 958.83605302 1816.15126072 958.8319149 1819.10307121 C958.83038121 1820.18960415 958.83038121 1820.18960415 958.82881654 1821.29808724 C958.81304637 1832.70916345 958.81039418 1844.12020185 958.81332505 1855.53128696 C958.81591766 1866.78515521 958.80361327 1878.03893432 958.7770885 1889.29277817 C958.76331811 1895.29770581 958.75549281 1901.30246237 958.7654855 1907.30740151 C958.81606255 1941.44788186 957.68194073 1974.3696808 948.21484375 2007.44140625 C947.98039551 2008.26092773 947.74594727 2009.08044922 947.50439453 2009.92480469 C933.64055089 2057.06382985 901.04334721 2100.69796246 862.21484375 2130.44140625 C861.31894531 2131.16585937 860.42304687 2131.8903125 859.5 2132.63671875 C826.67979544 2158.77212475 788.69522746 2178.52950451 749.21484375 2192.44140625 C748.1897168 2192.80459961 747.16458984 2193.16779297 746.10839844 2193.54199219 C699.18735899 2209.93394558 650.11139088 2212.85795737 600.85094833 2212.63864136 C597.52174889 2212.6254052 594.19255102 2212.62005265 590.86333179 2212.6142025 C560.64162064 2212.55684812 530.42883419 2212.12264279 500.21484375 2211.44140625 C499.89596191 2210.65564209 499.57708008 2209.86987793 499.24853516 2209.06030273 C489.52709747 2185.37042646 474.23172578 2168.28701142 454.21484375 2152.44140625 C453.10523697 2151.53181586 451.99723639 2150.62026349 450.890625 2149.70703125 C426.70446791 2129.85292214 399.86785308 2113.95910956 372.21484375 2099.44140625 C370.92392822 2098.76198975 370.92392822 2098.76198975 369.60693359 2098.06884766 C344.37774031 2084.88786202 317.99048186 2074.0445614 291.21484375 2064.44140625 C290.09175812 2064.03858429 290.09175812 2064.03858429 288.94598389 2063.62762451 C232.05568769 2043.28505152 173.78511216 2029.20728057 114.359375 2018.59375 C53.32795986 2007.68745039 53.32795986 2007.68745039 26.21484375 2000.44140625 C24.97508789 2000.11221191 23.73533203 1999.78301758 22.45800781 1999.44384766 C1.38953457 1993.75722435 -18.79032844 1986.27602756 -38.22265625 1976.31640625 C-39.5979248 1975.61692871 -39.5979248 1975.61692871 -41.00097656 1974.90332031 C-51.45955104 1969.36054509 -64.11994472 1960.95825037 -69.12109375 1949.73828125 C-70.97201452 1943.33627294 -70.86572009 1936.74811637 -67.84765625 1930.75390625 C-39.18311772 1886.60575273 47.00111553 1872.10822704 94.75445557 1860.06268311 C97.12039129 1859.4652566 99.48484732 1858.86226543 101.84912109 1858.25830078 C143.67786416 1847.62177134 186.17112447 1839.57056149 228.44844055 1830.94396973 C348.33813068 1814.02718129 348.33813068 1814.02718129 448.21484375 1754.44140625 C455.0124191 1743.63101289 456.76511797 1731.89881578 454.08984375 1719.50390625 C450.0238074 1704.72002292 439.58019405 1694.81018134 426.578125 1687.296875 C425.46824219 1686.68457031 424.35835937 1686.07226562 423.21484375 1685.44140625 C422.23902344 1684.88066406 421.26320313 1684.31992188 420.2578125 1683.7421875 C341.44296748 1641.21191264 235.06153212 1629.62034822 48.8059082 1609.70245361 C45.45666916 1609.45898541 42.10817475 1609.2072264 38.75976562 1608.95263672 C15.78270905 1607.22556161 -7.15103059 1606.37143783 -30.1875 1606.14453125 C-31.1796841 1606.13460396 -32.17186821 1606.12467667 -33.1941185 1606.11444855 C-43.23167448 1606.01667401 -53.26894767 1605.94029201 -63.30696106 1605.91519737 C-117.31194228 1605.76601175 -117.31194228 1605.76601175 -138.78515625 1598.44140625 C-139.84605469 1598.08304688 -140.90695312 1597.7246875 -142 1597.35546875 C-150.42608837 1594.18904462 -158.81833088 1589.56368365 -163.41015625 1581.50390625 C-165.75646474 1575.82161412 -165.50760461 1570.14796344 -163.78515625 1564.31640625 C-158.43448224 1552.06554177 -141.82291697 1546.96577979 -130.2800293 1542.33569336 C-121.90741666 1539.07824692 -113.44541237 1536.32949818 -104.78515625 1533.94140625 C-103.85944824 1533.68601074 -102.93374023 1533.43061523 -101.97998047 1533.16748047 C-97.77552626 1532.05767926 -94.15910929 1531.3141219 -89.78515625 1531.44140625 C-89.78515625 1530.78140625 -89.78515625 1530.12140625 -89.78515625 1529.44140625 C-178.07812317 1531.9812884 -178.07812317 1531.9812884 -254.22265625 1567.75390625 C-258.64050499 1573.52022626 -261.19939645 1579.61693383 -260.84765625 1586.94140625 C-259.43400163 1596.76769178 -254.50330703 1604.34097988 -246.78515625 1610.44140625 C-214.34366478 1633.64640015 -166.31419156 1633.91936875 -128.11594391 1635.87292004 C-47.61220477 1639.99662034 37.31471986 1645.32304911 163.21484375 1691.44140625 C168.29746852 1697.32718163 170.75401445 1703.18391123 170.51953125 1710.9609375 C168.64209195 1726.24521894 157.04137579 1738.22611656 145.42358398 1747.30493164 C135.38670854 1754.8937235 124.38895619 1760.71928268 113.21484375 1766.44140625 C112.38807129 1766.86776367 111.56129883 1767.29412109 110.70947266 1767.73339844 C33.14001809 1807.32663147 -55.73118108 1821.06099679 -147.78486347 1837.59671116 C-276.85816474 1860.20973429 -276.85816474 1860.20973429 -456.47265625 1946.7734375 C-463.74622763 1958.02928921 -466.78182159 1970.50533792 -464.125 1983.7265625 C-457.34765224 2008.34212428 -437.24536061 2024.1288688 -416.03515625 2036.37890625 C-382.99482077 2054.88624506 -347.51891303 2068.77500393 -312.46142578 2082.91113281 C-183.67926516 2134.84467477 -183.67926516 2134.84467477 -147.78515625 2169.44140625 C-147.08777344 2170.10140625 -146.39039063 2170.76140625 -145.671875 2171.44140625 C-136.28295595 2181.06732714 -127.78515625 2197.80640355 -127.78515625 2211.44140625 C-216.60556848 2212.22286802 -305.42843476 2212.53468507 -431.86579037 2212.66601562 C-433.20105578 2212.66695321 -433.20105578 2212.66695321 -434.56329625 2212.66790974 C-435.45359823 2212.66853409 -436.34390022 2212.66915844 -437.26118106 2212.66980171 C-438.15153116 2212.67042681 -439.04188126 2212.67105191 -439.95921167 2212.67169595 C-441.75719543 2212.67295434 -443.5551792 2212.67420096 -445.35316298 2212.67543578 C-458.83251281 2212.68485967 -472.31183388 2212.70263101 -485.79116821 2212.72485352 C-501.36683966 2212.75046548 -516.94247845 2212.76484426 -532.51817179 2212.76514459 C-540.60277287 2212.76555854 -548.68730292 2212.77059686 -556.77188492 2212.78902435 C-563.57288019 2212.80451011 -570.37378533 2212.80951104 -577.17479503 2212.80137342 C-580.61076488 2212.79755882 -584.04640817 2212.79985456 -587.48237765 2212.81248951 C-670.65667298 2213.10023038 -754.25033572 2182.3667018 -817.78515625 2128.44140625 C-818.77644531 2127.63445313 -819.76773438 2126.8275 -820.7890625 2125.99609375 C-828.63187135 2119.5432843 -835.90200064 2112.53798889 -843.09765625 2105.37890625 C-844.01651611 2104.46923096 -844.93537598 2103.55955566 -845.88208008 2102.62231445 C-851.94085623 2096.53618491 -857.4580041 2090.17338814 -862.78515625 2083.44140625 C-863.66616833 2082.35766761 -864.54757621 2081.27425037 -865.4296875 2080.19140625 C-885.42949874 2054.82227632 -900.48852245 2025.42361843 -908.15096921 1994.00026547 C-908.5609615 1992.34600183 -908.9861992 1990.69540956 -909.42968189 1989.04980785 C-915.46541005 1966.26440646 -914.49313282 1942.9594657 -914.42129266 1919.58205132 C-914.4076006 1913.306158 -914.42315926 1907.03032174 -914.43484348 1900.75443369 C-914.4513028 1889.77499432 -914.44949876 1878.79570243 -914.43501663 1867.81626511 C-914.41958086 1856.04741283 -914.41514944 1844.27863134 -914.42386818 1832.50977135 C-914.42441356 1831.76374989 -914.42495894 1831.01772844 -914.42552085 1830.24910027 C-914.42777909 1827.21018899 -914.43011569 1824.17127779 -914.43255132 1821.13236665 C-914.45517753 1792.89034628 -914.45344382 1764.64837711 -914.43606758 1736.4063549 C-914.41934524 1709.1952041 -914.41127326 1681.98407664 -914.41529655 1654.77292061 C-914.41553692 1653.06156121 -914.41577611 1651.35020181 -914.41601413 1649.63884242 C-914.41698297 1642.76102021 -914.4180054 1635.88319801 -914.41909924 1629.00537581 C-914.42212736 1609.78100429 -914.42345096 1590.55663284 -914.42346859 1571.33226109 C-914.42346986 1570.45694772 -914.42347112 1569.58163436 -914.42347243 1568.67979634 C-914.42339235 1540.80307531 -914.41584688 1512.9263615 -914.40306187 1485.04964352 C-914.40264818 1484.14594846 -914.40223449 1483.24225339 -914.40180827 1482.31117363 C-914.39506529 1467.63720715 -914.38791132 1452.96324085 -914.38072904 1438.28927457 C-914.35227179 1380.09379694 -914.34630457 1321.89836334 -914.36157227 1263.70288086 C-914.3625317 1260.02501148 -914.36348872 1256.3471421 -914.36444498 1252.66927271 C-914.36468145 1251.75992041 -914.36491791 1250.85056811 -914.36516155 1249.91365967 C-914.36777453 1239.84218161 -914.3703071 1229.77070353 -914.37274265 1219.69922543 C-914.37296247 1218.79598404 -914.37318228 1217.89274266 -914.37340876 1216.96213032 C-914.3849857 1169.02652488 -914.37868336 1121.09092299 -914.36556844 1073.15531838 C-914.3636902 1066.28408574 -914.36186374 1059.41285307 -914.3600429 1052.54162041 C-914.35935865 1049.97911786 -914.35865711 1047.41661532 -914.35795538 1044.85411278 C-914.35290573 1026.13110742 -914.3505702 1007.40810691 -914.35538983 988.68510127 C-914.35560651 987.84254302 -914.35582319 986.99998476 -914.35604644 986.13189444 C-914.35715518 981.89021146 -914.35831416 977.6485285 -914.35949484 973.40684554 C-914.36803328 942.71368901 -914.36378523 912.02058089 -914.33672775 881.32743352 C-914.33411329 878.29883576 -914.33155982 875.27023795 -914.32905388 872.24164009 C-914.32843273 871.49840591 -914.32781157 870.75517173 -914.3271716 869.98941531 C-914.31771734 858.25560726 -914.3215515 846.5218436 -914.33099673 834.78803715 C-914.34001156 823.22998854 -914.33423566 811.67204407 -914.31410434 800.11400446 C-914.30374941 793.9400956 -914.29953581 787.7663595 -914.31308288 781.59245288 C-914.40858664 734.3117211 -914.40858664 734.3117211 -909.78515625 714.44140625 C-909.55303045 713.40418662 -909.32090465 712.366967 -909.08174474 711.29831647 C-895.02018249 648.5195683 -862.89347241 594.24641245 -820.59448242 546.48608398 C-819.41922007 545.15794714 -818.24959956 543.82478859 -817.08666992 542.48583984 C-810.06205148 534.5138541 -802.54022145 527.04515741 -795.01928711 519.54516602 C-792.72068415 517.25193877 -790.42749595 514.95339385 -788.13476562 512.65429688 C-786.65266438 511.17285625 -785.17025305 509.69172575 -783.6875 508.2109375 C-783.01331528 507.53472855 -782.33913055 506.85851959 -781.64451599 506.16181946 C-777.73162044 502.26786874 -773.71436421 498.55112597 -769.53085327 494.94898987 C-767.128772 492.87455293 -764.80381928 490.71992233 -762.47265625 488.56640625 C-758.00992793 484.49600569 -753.42257625 480.63963716 -748.72265625 476.84765625 C-745.42161431 474.14361125 -742.1977001 471.36007764 -738.97265625 468.56640625 C-732.64847565 463.107485 -726.14262014 457.92054587 -719.53955078 452.8046875 C-717.17946804 450.97074622 -714.83292453 449.11987998 -712.48608398 447.26904297 C-705.94351641 442.11143812 -699.36379731 437.00341296 -692.74658203 431.94189453 C-691.32250421 430.85247677 -689.89908826 429.76219364 -688.47607422 428.67138672 C-678.37437724 420.93035894 -668.23031709 413.258563 -657.96166992 405.74023438 C-651.90822724 401.29738693 -645.9332646 396.75782029 -639.97265625 392.19140625 C-633.72564055 387.40922361 -627.45015697 382.69502287 -621.02124023 378.16040039 C-616.14290053 374.71631973 -611.3362013 371.17976959 -606.53515625 367.62890625 C-600.31197854 363.02840875 -594.0666263 358.46199387 -587.78515625 353.94140625 C-581.58857352 349.48125094 -575.4253953 344.97880937 -569.28515625 340.44140625 C-560.90740564 334.2523526 -552.47707661 328.13953106 -544.0234375 322.0546875 C-541.76449418 320.42651369 -539.50872964 318.79403 -537.25390625 317.16015625 C-529.2656459 311.37389294 -521.24802924 305.6344294 -513.17944336 299.96069336 C-508.0192528 296.32679833 -502.8958475 292.64452681 -497.78515625 288.94140625 C-488.47540136 282.19792384 -479.08463289 275.57305688 -469.68066406 268.96191406 C-461.6807247 263.33562384 -453.70603121 257.6786241 -445.78515625 251.94140625 C-436.47526833 245.19810384 -427.08463606 238.57305911 -417.68066406 231.96191406 C-409.74200138 226.37871921 -401.82935513 220.76451084 -393.97265625 215.06640625 C-386.78791023 209.8561181 -379.53428442 204.75159896 -372.25341797 199.67675781 C-365.90918472 195.24723113 -359.62602212 190.73908429 -353.36328125 186.1953125 C-348.36417178 182.57161939 -343.33602655 178.99254402 -338.28515625 175.44140625 C-330.16313287 169.72796345 -322.11021619 163.92192835 -314.06884766 158.09570312 C-310.22636513 155.31222423 -306.38105655 152.53266026 -302.53515625 149.75390625 C-301.40605835 148.93805054 -301.40605835 148.93805054 -300.25415039 148.10571289 C-295.21589089 144.46779559 -290.16382171 140.84983357 -285.10351562 137.24267578 C-278.07783411 132.23035385 -271.08844757 127.16778702 -264.09521484 122.11035156 C-261.83334796 120.47622326 -259.56939317 118.84503495 -257.3046875 117.21484375 C-249.59982625 111.66589117 -241.92353596 106.08157648 -234.28515625 100.44140625 C-232.6836363 99.26296301 -231.08207398 98.08457734 -229.48046875 96.90625 C-226.46309298 94.68504012 -223.45945401 92.44708962 -220.46484375 90.1953125 C-202.67613709 76.93681267 -183.32097351 65.91008724 -163.78515625 55.44140625 C-162.93872559 54.98733398 -162.09229492 54.53326172 -161.22021484 54.06542969 C-119.31032726 31.68423318 -75.58310794 11.9151199 -28.78515625 2.44140625 C-27.93702362 2.26602325 -27.08889099 2.09064026 -26.21505737 1.90994263 C-17.47678826 0.27027481 -8.85496401 0.06086802 0 0 Z M9.21484375 488.44140625 C7.94662924 490.31635648 6.77808828 492.25885746 5.65234375 494.22265625 C5.30527374 494.82245804 4.95820374 495.42225983 4.60061646 496.04023743 C3.85479303 497.330557 3.11224785 498.62277579 2.37261963 499.91665649 C0.43674482 503.30216669 -1.52312805 506.67374555 -3.48046875 510.046875 C-3.86284698 510.70725266 -4.24522522 511.36763031 -4.63919067 512.04801941 C-7.22600447 516.50727123 -9.88159829 520.91106692 -12.66015625 525.25390625 C-17.59351786 532.99826298 -22.23867488 540.91275056 -26.91015625 548.81640625 C-32.78105539 558.74768333 -38.70701148 568.63511723 -44.78515625 578.44140625 C-50.70888862 588.00277944 -56.4967528 597.63572913 -62.22265625 607.31640625 C-68.23176949 617.47440239 -74.27565811 627.60856215 -80.41015625 637.69140625 C-80.75781036 638.26296448 -81.10546448 638.83452271 -81.46365356 639.42340088 C-84.24853199 644.00065254 -87.03759205 648.57535182 -89.8269043 653.14990234 C-92.27332748 657.16251773 -94.71787075 661.17627104 -97.16015625 665.19140625 C-97.50541351 665.75883545 -97.85067078 666.32626465 -98.20639038 666.91088867 C-104.53825729 677.32384095 -110.75852854 687.80146186 -116.96429443 698.28991699 C-121.51022142 705.97028744 -126.08421553 713.62244229 -130.87426758 721.15380859 C-135.37350111 728.28132612 -139.62124056 735.56134025 -143.91015625 742.81640625 C-149.78127396 752.74755889 -155.7070075 762.63511081 -161.78515625 772.44140625 C-167.70888862 782.00277944 -173.4967528 791.63572913 -179.22265625 801.31640625 C-185.23176949 811.47440239 -191.27565811 821.60856215 -197.41015625 831.69140625 C-197.75781036 832.26296448 -198.10546448 832.83452271 -198.46365356 833.42340088 C-201.24853199 838.00065254 -204.03759205 842.57535182 -206.8269043 847.14990234 C-209.27332748 851.16251773 -211.71787075 855.17627104 -214.16015625 859.19140625 C-214.50541351 859.75883545 -214.85067078 860.32626465 -215.20639038 860.91088867 C-221.53825729 871.32384095 -227.75852854 881.80146186 -233.96429443 892.28991699 C-238.51022142 899.97028744 -243.08421553 907.62244229 -247.87426758 915.15380859 C-252.37350111 922.28132612 -256.62124056 929.56134025 -260.91015625 936.81640625 C-266.78127317 946.74755756 -272.70695278 956.63514561 -278.78515625 966.44140625 C-284.77330935 976.10568713 -290.62163903 985.84419254 -296.41015625 995.62890625 C-303.51925795 1007.64433925 -310.71156857 1019.60369139 -317.99560547 1031.51416016 C-321.32795103 1036.96502281 -324.65301436 1042.42030028 -327.97265625 1047.87890625 C-328.50001373 1048.74583603 -328.50001373 1048.74583603 -329.0380249 1049.63027954 C-335.35695485 1060.0249103 -341.56775407 1070.48195788 -347.76132202 1080.95162964 C-353.00958825 1089.81946237 -358.33605554 1098.627426 -363.80053711 1107.36425781 C-368.68909589 1115.2135146 -373.39279411 1123.16883849 -378.09765625 1131.12890625 C-383.90616034 1140.95603125 -389.77139852 1150.73802636 -395.78515625 1160.44140625 C-401.77325622 1170.10572091 -407.62163829 1179.84419128 -413.41015625 1189.62890625 C-420.51925795 1201.64433925 -427.71156857 1213.60369139 -434.99560547 1225.51416016 C-438.32795103 1230.96502281 -441.65301436 1236.42030028 -444.97265625 1241.87890625 C-445.32422791 1242.45685944 -445.67579956 1243.03481262 -446.0380249 1243.63027954 C-452.35695485 1254.0249103 -458.56775407 1264.48195788 -464.76132202 1274.95162964 C-470.00958825 1283.81946237 -475.33605554 1292.627426 -480.80053711 1301.36425781 C-485.68909589 1309.2135146 -490.39279411 1317.16883849 -495.09765625 1325.12890625 C-500.90616034 1334.95603125 -506.77139852 1344.73802636 -512.78515625 1354.44140625 C-518.77325622 1364.10572091 -524.62163829 1373.84419128 -530.41015625 1383.62890625 C-537.51925795 1395.64433925 -544.71156857 1407.60369139 -551.99560547 1419.51416016 C-555.32795103 1424.96502281 -558.65301436 1430.42030028 -561.97265625 1435.87890625 C-562.32422791 1436.45685944 -562.67579956 1437.03481262 -563.0380249 1437.63027954 C-569.3555522 1448.02260294 -575.56456901 1458.47755011 -581.7572937 1468.94458008 C-586.60708225 1477.13796923 -591.49859568 1485.2983399 -596.53515625 1493.37890625 C-601.09605075 1500.70643846 -605.6424291 1508.0423274 -610.12072754 1515.42068481 C-611.14228676 1517.09953912 -612.17214816 1518.77333261 -613.20214844 1520.44702148 C-613.81477539 1521.45966064 -614.42740234 1522.4722998 -615.05859375 1523.515625 C-615.60950684 1524.41885498 -616.16041992 1525.32208496 -616.72802734 1526.25268555 C-617.07687988 1526.97496338 -617.42573242 1527.69724121 -617.78515625 1528.44140625 C-617.45515625 1529.10140625 -617.12515625 1529.76140625 -616.78515625 1530.44140625 C-616.06972656 1529.60480469 -615.35429688 1528.76820312 -614.6171875 1527.90625 C-609.19256418 1521.56769558 -603.75420922 1515.24168256 -598.28515625 1508.94140625 C-594.10184536 1504.12216739 -589.93381184 1499.29051086 -585.78515625 1494.44140625 C-578.9411491 1486.44339559 -572.04033451 1478.49499734 -565.13964844 1470.54589844 C-559.3364672 1463.85999919 -553.54125687 1457.16791303 -547.78515625 1450.44140625 C-540.9410548 1442.44347538 -534.04033528 1434.49499823 -527.13964844 1426.54589844 C-520.8387386 1419.28656143 -514.55345324 1412.01477103 -508.30444336 1404.71069336 C-504.10402501 1399.80457716 -499.87437172 1394.92423168 -495.640625 1390.046875 C-492.00682997 1385.85803729 -488.39014417 1381.65505165 -484.78515625 1377.44140625 C-477.9411491 1369.44339559 -471.04033451 1361.49499734 -464.13964844 1353.54589844 C-457.8387386 1346.28656143 -451.55345324 1339.01477103 -445.30444336 1331.71069336 C-441.10402501 1326.80457716 -436.87437172 1321.92423168 -432.640625 1317.046875 C-429.00682997 1312.85803729 -425.39014417 1308.65505165 -421.78515625 1304.44140625 C-414.9411491 1296.44339559 -408.04033451 1288.49499734 -401.13964844 1280.54589844 C-394.8387386 1273.28656143 -388.55345324 1266.01477103 -382.30444336 1258.71069336 C-378.10402501 1253.80457716 -373.87437172 1248.92423168 -369.640625 1244.046875 C-366.00682997 1239.85803729 -362.39014417 1235.65505165 -358.78515625 1231.44140625 C-351.9411491 1223.44339559 -345.04033451 1215.49499734 -338.13964844 1207.54589844 C-332.3364672 1200.85999919 -326.54125687 1194.16791303 -320.78515625 1187.44140625 C-313.9410548 1179.44347538 -307.04033528 1171.49499823 -300.13964844 1163.54589844 C-293.8387386 1156.28656143 -287.55345324 1149.01477103 -281.30444336 1141.71069336 C-277.10402501 1136.80457716 -272.87437172 1131.92423168 -268.640625 1127.046875 C-265.00682997 1122.85803729 -261.39014417 1118.65505165 -257.78515625 1114.44140625 C-250.9411491 1106.44339559 -244.04033451 1098.49499734 -237.13964844 1090.54589844 C-230.8387386 1083.28656143 -224.55345324 1076.01477103 -218.30444336 1068.71069336 C-214.64789213 1064.43981753 -210.9706441 1060.18732469 -207.28515625 1055.94140625 C-203.06425645 1051.07713024 -198.85278538 1046.20507999 -194.66015625 1041.31640625 C-194.17369629 1040.74962158 -193.68723633 1040.18283691 -193.18603516 1039.59887695 C-190.66019004 1036.65037206 -188.150469 1033.68953165 -185.66015625 1030.7109375 C-185.15629395 1030.10975098 -184.65243164 1029.50856445 -184.13330078 1028.88916016 C-183.17292674 1027.74161345 -182.21542328 1026.5916564 -181.26123047 1025.43896484 C-178.00707829 1021.55236727 -178.00707829 1021.55236727 -175.78515625 1020.44140625 C-175.61163887 1022.31548157 -175.61163887 1022.31548157 -175.43461609 1024.22741699 C-174.80422469 1029.86388998 -173.6238286 1035.33338763 -172.39379883 1040.86523438 C-172.14856602 1041.98577902 -171.90333321 1043.10632366 -171.6506691 1044.2608242 C-170.83139485 1047.99907945 -170.00552328 1051.73584553 -169.1796875 1055.47265625 C-168.59023947 1058.15361224 -168.00222378 1060.83488185 -167.41416931 1063.5161438 C-166.1474248 1069.28853297 -164.8773794 1075.06018765 -163.60510254 1080.83135986 C-161.74430519 1089.27237226 -159.88893735 1097.71457106 -158.03506446 1106.15710664 C-157.16794145 1110.10595997 -156.30062499 1114.0547708 -155.43325806 1118.00357056 C-155.25987573 1118.79291689 -155.0864934 1119.58226323 -154.90785706 1120.39552915 C-153.66353083 1126.05995557 -152.41823798 1131.72416898 -151.17245483 1137.38827515 C-150.90594575 1138.60000119 -150.90594575 1138.60000119 -150.63405263 1139.83620656 C-150.456408 1140.64389607 -150.27876336 1141.45158558 -150.09573555 1142.28375053 C-145.73110046 1162.12842865 -141.37723389 1181.97544807 -137.03125 1201.82421875 C-136.87508673 1202.53742853 -136.71892347 1203.25063832 -136.55802798 1203.98546052 C-134.83645298 1211.84816222 -133.11523721 1219.71094253 -131.39419556 1227.57376099 C-129.69317008 1235.34509377 -127.99142226 1243.11626825 -126.28951252 1250.88740742 C-113.76697387 1308.06746583 -101.27275291 1365.25370772 -88.78515625 1422.44140625 C-88.45515625 1422.44140625 -88.12515625 1422.44140625 -87.78515625 1422.44140625 C-84.52986483 1384.50491317 -81.39764506 1346.5606537 -78.39265884 1308.60342114 C-77.82644228 1301.45214454 -77.25830235 1294.30102097 -76.69019761 1287.14989416 C-75.32290004 1269.93762023 -73.95876636 1252.72509606 -72.59509153 1235.5125348 C-71.94840367 1227.3501953 -71.30131501 1219.18788758 -70.65418831 1211.02558286 C-68.43165178 1182.99224378 -66.20981584 1154.95884929 -63.99038219 1126.92526436 C-63.85219832 1125.17989197 -63.71401435 1123.4345196 -63.5758303 1121.68914723 C-63.43736356 1119.9401975 -63.29889684 1118.19124778 -63.16043013 1116.44229805 C-62.88275243 1112.93500197 -62.60507302 1109.42770602 -62.32739258 1105.92041016 C-62.22412782 1104.61609056 -62.22412782 1104.61609056 -62.1187769 1103.28542106 C-59.87620405 1074.9602273 -57.6294489 1046.63536738 -55.38026749 1018.31069765 C-52.99173736 988.230967 -50.60691679 958.15094452 -48.22635347 928.07058227 C-47.9652554 924.77157031 -47.70414222 921.47255954 -47.44301796 918.17354965 C-47.37874239 917.36147829 -47.31446682 916.54940692 -47.2482435 915.71272734 C-46.21626245 902.6755571 -45.18092012 889.63865591 -44.14435507 876.60184943 C-43.10496721 863.52846289 -42.06936749 850.45478053 -41.03761008 837.38078953 C-40.42539756 829.62448601 -39.8103621 821.8684186 -39.19122995 814.11266429 C-38.7290274 808.31874884 -38.2721865 802.52441866 -37.81740645 796.7299156 C-37.63293659 794.39013744 -37.44674495 792.05049424 -37.25863912 789.71100558 C-35.90536033 773.09875666 -35.90536033 773.09875666 -35.78515625 756.44140625 C-35.12515625 756.44140625 -34.46515625 756.44140625 -33.78515625 756.44140625 C-33.61500566 757.26945361 -33.61500566 757.26945361 -33.44141769 758.1142292 C-32.29870851 763.48516003 -30.86020071 768.65441767 -29.11816406 773.85888672 C-28.85750656 774.64944458 -28.59684906 775.44000244 -28.32829285 776.2545166 C-27.4690406 778.85724658 -26.60364971 781.4578916 -25.73828125 784.05859375 C-25.12408062 785.91556447 -24.51029979 787.77267408 -23.89691162 789.62991333 C-22.27526067 794.53668411 -20.64855262 799.4417628 -19.02056885 804.34643555 C-16.46826689 812.03891082 -13.92393111 819.73402811 -11.37853622 827.42879105 C-10.74121624 829.35515812 -10.10371554 831.28146542 -9.46603775 833.20771408 C-4.19253658 849.13832571 1.02140009 865.08771962 6.20761108 881.04693604 C9.80420856 892.11400385 13.4156144 903.17600737 17.05078125 914.23046875 C17.27981392 914.9269817 17.50884659 915.62349464 17.74481964 916.34111404 C18.89175693 919.82858096 20.03917716 923.31588872 21.18688965 926.80310059 C23.64873904 934.28343713 26.10758918 941.76476003 28.56640625 949.24609375 C28.81000885 949.98725937 29.05361145 950.72842499 29.30459595 951.49205017 C40.02602943 984.11428107 50.6740993 1016.76033198 61.21484375 1049.44140625 C61.54484375 1049.44140625 61.87484375 1049.44140625 62.21484375 1049.44140625 C63.2641241 1024.95285858 64.30750826 1000.46406568 65.34405518 975.97497559 C65.8255788 964.60185036 66.30896282 953.22881013 66.796875 941.85595703 C67.22260507 931.9324065 67.64469332 922.00870858 68.06258011 912.08482456 C68.28354916 906.84021744 68.50622475 901.59569648 68.73327637 896.35134888 C70.09223699 865.40884806 70.09223699 865.40884806 70.21484375 834.44140625 C78.61516077 842.8286101 86.56956535 851.5023411 94.00390625 860.76171875 C96.32419325 863.5739394 98.74555509 866.25937888 101.21484375 868.94140625 C104.48902798 872.49810869 107.62126808 876.11302436 110.65234375 879.87890625 C113.87427476 883.87364611 117.2213987 887.68694974 120.71484375 891.44140625 C125.00439488 896.05144961 129.01895047 900.81923581 132.96875 905.7265625 C135.30314965 908.5481412 137.73474973 911.24731337 140.21484375 913.94140625 C144.30835466 918.38867737 148.13926874 922.98858088 151.93359375 927.69140625 C154.28203343 930.52240203 156.72394277 933.23524223 159.21484375 935.94140625 C163.30835466 940.38867737 167.13926874 944.98858088 170.93359375 949.69140625 C174.07678633 953.48046032 177.4164297 957.07409977 180.75 960.6953125 C183.14191672 963.36015791 185.40739259 966.0897245 187.65234375 968.87890625 C190.87427476 972.87364611 194.2213987 976.68694974 197.71484375 980.44140625 C202.00439488 985.05144961 206.01895047 989.81923581 209.96875 994.7265625 C212.30314965 997.5481412 214.73474973 1000.24731337 217.21484375 1002.94140625 C221.30835466 1007.38867737 225.13926874 1011.98858088 228.93359375 1016.69140625 C231.28203343 1019.52240203 233.72394277 1022.23524223 236.21484375 1024.94140625 C240.30835466 1029.38867737 244.13926874 1033.98858088 247.93359375 1038.69140625 C251.07678633 1042.48046032 254.4164297 1046.07409977 257.75 1049.6953125 C260.14191672 1052.36015791 262.40739259 1055.0897245 264.65234375 1057.87890625 C267.87427476 1061.87364611 271.2213987 1065.68694974 274.71484375 1069.44140625 C279.00439488 1074.05144961 283.01895047 1078.81923581 286.96875 1083.7265625 C289.30314965 1086.5481412 291.73474973 1089.24731337 294.21484375 1091.94140625 C298.30835466 1096.38867737 302.13926874 1100.98858088 305.93359375 1105.69140625 C308.28203343 1108.52240203 310.72394277 1111.23524223 313.21484375 1113.94140625 C317.30835466 1118.38867737 321.13926874 1122.98858088 324.93359375 1127.69140625 C327.28203343 1130.52240203 329.72394277 1133.23524223 332.21484375 1135.94140625 C336.30835466 1140.38867737 340.13926874 1144.98858088 343.93359375 1149.69140625 C347.07678633 1153.48046032 350.4164297 1157.07409977 353.75 1160.6953125 C356.14191672 1163.36015791 358.40739259 1166.0897245 360.65234375 1168.87890625 C363.87427476 1172.87364611 367.2213987 1176.68694974 370.71484375 1180.44140625 C375.00439488 1185.05144961 379.01895047 1189.81923581 382.96875 1194.7265625 C385.30314965 1197.5481412 387.73474973 1200.24731337 390.21484375 1202.94140625 C394.30835466 1207.38867737 398.13926874 1211.98858088 401.93359375 1216.69140625 C404.28203343 1219.52240203 406.72394277 1222.23524223 409.21484375 1224.94140625 C413.30835466 1229.38867737 417.13926874 1233.98858088 420.93359375 1238.69140625 C424.07678633 1242.48046032 427.4164297 1246.07409977 430.75 1249.6953125 C433.14191672 1252.36015791 435.40739259 1255.0897245 437.65234375 1257.87890625 C440.87427476 1261.87364611 444.2213987 1265.68694974 447.71484375 1269.44140625 C452.00439488 1274.05144961 456.01895047 1278.81923581 459.96875 1283.7265625 C462.30314965 1286.5481412 464.73474973 1289.24731337 467.21484375 1291.94140625 C471.30835466 1296.38867737 475.13926874 1300.98858088 478.93359375 1305.69140625 C481.28203343 1308.52240203 483.72394277 1311.23524223 486.21484375 1313.94140625 C490.30835466 1318.38867737 494.13926874 1322.98858088 497.93359375 1327.69140625 C501.07678633 1331.48046032 504.4164297 1335.07409977 507.75 1338.6953125 C510.14191672 1341.36015791 512.40739259 1344.0897245 514.65234375 1346.87890625 C517.87427476 1350.87364611 521.2213987 1354.68694974 524.71484375 1358.44140625 C529.00439488 1363.05144961 533.01895047 1367.81923581 536.96875 1372.7265625 C539.30314965 1375.5481412 541.73474973 1378.24731337 544.21484375 1380.94140625 C548.30835466 1385.38867737 552.13926874 1389.98858088 555.93359375 1394.69140625 C558.28203343 1397.52240203 560.72394277 1400.23524223 563.21484375 1402.94140625 C567.30835466 1407.38867737 571.13926874 1411.98858088 574.93359375 1416.69140625 C577.28203343 1419.52240203 579.72394277 1422.23524223 582.21484375 1424.94140625 C586.30835466 1429.38867737 590.13926874 1433.98858088 593.93359375 1438.69140625 C597.07678633 1442.48046032 600.4164297 1446.07409977 603.75 1449.6953125 C606.14191672 1452.36015791 608.40739259 1455.0897245 610.65234375 1457.87890625 C613.87427476 1461.87364611 617.2213987 1465.68694974 620.71484375 1469.44140625 C625.00439488 1474.05144961 629.01895047 1478.81923581 632.96875 1483.7265625 C635.30314965 1486.5481412 637.73474973 1489.24731337 640.21484375 1491.94140625 C643.50816074 1495.51933088 646.66135696 1499.15680291 649.71484375 1502.94140625 C653.60852896 1507.76544102 657.71058779 1512.35185257 661.90625 1516.9140625 C664.75185538 1520.02930223 667.49288553 1523.21803468 670.21484375 1526.44140625 C670.54484375 1525.78140625 670.87484375 1525.12140625 671.21484375 1524.44140625 C670.25043165 1522.42442771 670.25043165 1522.42442771 668.7421875 1520.20703125 C667.89817383 1518.89798828 667.89817383 1518.89798828 667.03710938 1517.5625 C666.41513672 1516.61503906 665.79316406 1515.66757813 665.15234375 1514.69140625 C663.84874777 1512.67591743 662.54536821 1510.66028861 661.2421875 1508.64453125 C660.5704248 1507.61134766 659.89866211 1506.57816406 659.20654297 1505.51367188 C656.17832976 1500.84254721 653.19735968 1496.14178353 650.21484375 1491.44140625 C649.04582595 1489.60400566 647.87655429 1487.76676655 646.70703125 1485.9296875 C644.39885489 1482.30264517 642.09163057 1478.67499989 639.78515625 1475.046875 C633.61018007 1465.33532156 627.42148165 1455.63275995 621.21484375 1445.94140625 C614.43456196 1435.35433639 607.67742272 1424.75276479 600.93261719 1414.14306641 C598.02810811 1409.57494568 595.12135146 1405.00825548 592.21484375 1400.44140625 C591.04816655 1398.60807962 589.88149988 1396.77474629 588.71484375 1394.94140625 C588.13734375 1394.03390625 587.55984375 1393.12640625 586.96484375 1392.19140625 C581.71484375 1383.94140625 581.71484375 1383.94140625 579.96533203 1381.19213867 C578.79707987 1379.35633713 577.62878551 1377.52056245 576.46044922 1375.68481445 C573.5676962 1371.13946249 570.67564605 1366.59366658 567.78515625 1362.046875 C561.61018007 1352.33532156 555.42148165 1342.63275995 549.21484375 1332.94140625 C542.43456196 1322.35433639 535.67742272 1311.75276479 528.93261719 1301.14306641 C526.02810812 1296.57494569 523.12137755 1292.00823886 520.21484375 1287.44140625 C516.73720935 1281.97724336 513.2599762 1276.51282823 509.78515625 1271.046875 C503.61018007 1261.33532156 497.42148165 1251.63275995 491.21484375 1241.94140625 C484.43456196 1231.35433639 477.67742272 1220.75276479 470.93261719 1210.14306641 C468.02810812 1205.57494569 465.12137755 1201.00823886 462.21484375 1196.44140625 C458.73720935 1190.97724336 455.2599762 1185.51282823 451.78515625 1180.046875 C445.61018007 1170.33532156 439.42148165 1160.63275995 433.21484375 1150.94140625 C426.43456196 1140.35433639 419.67742272 1129.75276479 412.93261719 1119.14306641 C410.02810812 1114.57494569 407.12137755 1110.00823886 404.21484375 1105.44140625 C400.73720935 1099.97724336 397.2599762 1094.51282823 393.78515625 1089.046875 C387.61018007 1079.33532156 381.42148165 1069.63275995 375.21484375 1059.94140625 C368.43456196 1049.35433639 361.67742272 1038.75276479 354.93261719 1028.14306641 C352.02810811 1023.57494568 349.12135146 1019.00825548 346.21484375 1014.44140625 C345.04816655 1012.60807962 343.88149988 1010.77474629 342.71484375 1008.94140625 C341.84859375 1007.58015625 341.84859375 1007.58015625 340.96484375 1006.19140625 C335.71484375 997.94140625 335.71484375 997.94140625 333.96533203 995.19213867 C332.79707987 993.35633713 331.62878551 991.52056245 330.46044922 989.68481445 C327.5676962 985.13946249 324.67564605 980.59366658 321.78515625 976.046875 C315.61018007 966.33532156 309.42148165 956.63275995 303.21484375 946.94140625 C296.43456196 936.35433639 289.67742272 925.75276479 282.93261719 915.14306641 C280.02810812 910.57494569 277.12137755 906.00823886 274.21484375 901.44140625 C270.73720935 895.97724336 267.2599762 890.51282823 263.78515625 885.046875 C257.61018007 875.33532156 251.42148165 865.63275995 245.21484375 855.94140625 C238.43456196 845.35433639 231.67742272 834.75276479 224.93261719 824.14306641 C222.02810812 819.57494569 219.12137755 815.00823886 216.21484375 810.44140625 C212.73720935 804.97724336 209.2599762 799.51282823 205.78515625 794.046875 C199.61018007 784.33532156 193.42148165 774.63275995 187.21484375 764.94140625 C180.43456196 754.35433639 173.67742272 743.75276479 166.93261719 733.14306641 C164.02810812 728.57494569 161.12137755 724.00823886 158.21484375 719.44140625 C154.73720935 713.97724336 151.2599762 708.51282823 147.78515625 703.046875 C141.61018007 693.33532156 135.42148165 683.63275995 129.21484375 673.94140625 C122.43456196 663.35433639 115.67742272 652.75276479 108.93261719 642.14306641 C106.02810812 637.57494569 103.12137755 633.00823886 100.21484375 628.44140625 C96.73720935 622.97724336 93.2599762 617.51282823 89.78515625 612.046875 C83.61018007 602.33532156 77.42148165 592.63275995 71.21484375 582.94140625 C64.43456196 572.35433639 57.67742272 561.75276479 50.93261719 551.14306641 C48.61218927 547.4935702 46.29028637 543.84501362 43.96826172 540.1965332 C42.80309652 538.36572155 41.63805663 536.53483013 40.47314453 534.70385742 C37.50884281 530.04477911 34.54292876 525.38673958 31.57421875 520.73046875 C30.97512695 519.79025879 30.37603516 518.85004883 29.75878906 517.88134766 C28.57661853 516.02636314 27.39369384 514.17185899 26.20996094 512.31787109 C23.5003935 508.06670645 20.81294819 503.80522486 18.18359375 499.50390625 C17.72114258 498.75028809 17.25869141 497.99666992 16.78222656 497.22021484 C15.92625136 495.82076836 15.07628293 494.41762369 14.23339844 493.01025391 C13.28030209 491.45352987 12.25494962 489.94139364 11.21484375 488.44140625 C10.55484375 488.44140625 9.89484375 488.44140625 9.21484375 488.44140625 Z M672.21484375 1527.44140625 C673.21484375 1529.44140625 673.21484375 1529.44140625 673.21484375 1529.44140625 Z " fill="#0A3463" transform="translate(913.78515625,-0.44140625)"/>
</svg>
